<?xml version="1.0" encoding="UTF-8"?>
<svg width="54px" height="54px" viewBox="0 0 54 54" version="1.1" xmlns="http://www.w3.org/2000/svg" xmlns:xlink="http://www.w3.org/1999/xlink">
    <!-- Generator: Sketch 46.2 (44496) - http://www.bohemiancoding.com/sketch -->
    <title>logo</title>
    <desc>Created with Sketch.</desc>
    <defs>
        <polygon id="path-1" points="2.16666667e-05 44.9310623 25.9816556 44.9310623 25.9816556 0 2.16666667e-05 0"></polygon>
    </defs>
    <g id="Page-1" stroke="none" stroke-width="1" fill="none" fill-rule="evenodd">
        <g id="logo">
            <g id="Page-1" transform="translate(13.000000, 4.000000)">
                <mask id="mask-2" fill="white">
                    <use xlink:href="#path-1"></use>
                </mask>
                <g id="Clip-2"></g>
                <path d="M0.0501438889,22.9148123 L0.250777222,15.6759225 C0.250777222,15.2765296 0.601921667,14.9270966 1.00311611,14.9270966 C2.60818278,14.9270966 3.862105,15.3264896 4.764955,16.1252756 L4.764955,4.84256789 C4.764955,3.09525958 6.21958278,1.64742412 7.97501611,1.64742412 C8.67723278,1.64742412 9.329255,1.84719249 9.83091056,2.24651358 C10.3324217,0.948558307 11.5362217,-3.5942492e-05 12.940655,-3.5942492e-05 C14.6961606,-3.5942492e-05 16.1507883,1.44779952 16.1507883,3.19510783 L16.1507883,3.39480431 C16.6522994,3.09525958 17.2541994,2.8955631 17.8560994,2.8955631 C19.6116772,2.8955631 21.0661606,4.34332668 21.0661606,6.09063498 L21.0661606,9.93475639 C21.5678161,9.63521166 22.1697161,9.43551518 22.7715439,9.43551518 C24.5270494,9.43551518 25.9816772,10.8832788 25.9816772,12.6306589 L25.9816772,29.7044209 C25.9816772,36.1445248 24.8781217,38.9402756 24.0756606,40.9371685 C23.6241994,42.0854593 23.2731272,42.9341334 23.2731272,44.1323123 C23.2731272,44.5317053 22.922055,44.8811382 22.5207883,44.8811382 C22.1195217,44.8811382 21.7683772,44.5317053 21.7683772,44.1323123 C21.7683772,42.6345887 22.1697161,41.5862181 22.6712272,40.3880391 C23.4236383,38.4909944 24.4769272,35.84498 24.4769272,29.7044209 L24.4769272,12.6306589 C24.4769272,11.6820647 23.7245883,10.9332388 22.7715439,10.9332388 C21.8185717,10.9332388 21.0661606,11.6820647 21.0661606,12.6306589 L21.0661606,25.1614337 C21.0661606,25.5608267 20.7150883,25.9102596 20.3138217,25.9102596 C19.9126272,25.9102596 19.5614828,25.5608267 19.5614828,25.1614337 L19.5614828,6.09063498 C19.5614828,5.14211262 18.8090717,4.39328674 17.8560994,4.39328674 C16.9031272,4.39328674 16.1507883,5.14211262 16.1507883,6.09063498 L16.1507883,24.2129113 C16.1507883,24.6122324 15.7996439,24.9617372 15.3983772,24.9617372 C14.9971106,24.9617372 14.6460383,24.6122324 14.6460383,24.2129113 L14.6460383,3.19510783 C14.6460383,2.24651358 13.8936994,1.4976877 12.940655,1.4976877 C11.9876828,1.4976877 11.2352717,2.24651358 11.2352717,3.19510783 L11.2352717,24.2129113 C11.2352717,24.6122324 10.8841994,24.9617372 10.4829328,24.9617372 C10.0816661,24.9617372 9.73052167,24.6122324 9.73052167,24.2129113 L9.73052167,4.84256789 C9.73052167,3.89397364 8.97818278,3.14514776 8.02521056,3.14514776 C7.07223833,3.14514776 6.31989944,3.89397364 6.31989944,4.84256789 L6.31989944,18.5715216 C6.67097167,19.6198922 6.82141056,20.9179193 6.82141056,22.415643 L6.82141056,28.7060104 C8.52679389,29.0554433 9.98134944,30.5531669 10.9343217,33.0492292 C11.0848328,33.4486941 10.8841994,33.8480871 10.4829328,33.9978954 C10.0816661,34.1476318 9.68039944,33.9478634 9.52996056,33.5485423 C8.92806056,31.9509704 7.82457722,30.1038139 6.06907167,30.1038139 C5.667805,30.1038139 5.31673278,29.754381 5.31673278,29.354988 L5.31673278,22.415643 C5.31673278,17.7227756 3.71166611,16.6245168 1.755455,16.4747085 L1.55489389,22.9148123 L1.55489389,29.754381 C1.55489389,36.0446765 3.96242167,38.4909944 5.91856056,40.4878874 C6.97192167,41.5862181 7.97501611,42.5847005 8.37628278,44.0324641 C8.47667167,44.431857 8.22584389,44.83125 7.82457722,44.9310982 L7.62394389,44.9310982 C7.27287167,44.9310982 6.97192167,44.6814417 6.87153278,44.381897 C6.62084944,43.3335264 5.81824389,42.5348123 4.81514944,41.536258 C2.80881611,39.489405 2.16666667e-05,36.693726 2.16666667e-05,29.754381 L0.0501438889,22.9148123 Z" id="Fill-1" fill="#FFFFFF" mask="url(#mask-2)"></path>
            </g>
        </g>
    </g>
</svg>